<?xml version="1.0" encoding="UTF-8"?>
<svg width="257px" height="49px" viewBox="0 0 257 49" version="1.1" xmlns="http://www.w3.org/2000/svg" xmlns:xlink="http://www.w3.org/1999/xlink">
    <title>2A40541C-4E65-4C93-86DA-59FD33B38C04</title>
    <defs>
        <polygon id="path-1" points="0.338442105 0 15.7068632 0 15.7068632 13.6605636 0.338442105 13.6605636"></polygon>
        <polygon id="path-3" points="0 -5.94872988e-15 7.84156 -5.94872988e-15 7.84156 17.8325581 0 17.8325581"></polygon>
        <polygon id="path-5" points="0.123459375 0.203569767 25.7578344 0.203569767 25.7578344 35 0.123459375 35"></polygon>
    </defs>
    <g id="Page-1" stroke="none" stroke-width="1" fill="none" fill-rule="evenodd">
        <g id="LO-Images" transform="translate(-53.000000, -50.000000)">
            <g id="Group-60" transform="translate(53.000000, 50.000000)">
                <path d="M12,32.2044199 C10.9717514,31.5856354 10.0621469,30.8121547 9.27118644,30 L5,33.558011 C6.2259887,34.8729282 7.61016949,36.0331492 9.23163842,37 L12,32.2044199 Z" id="Fill-1" fill="#F2AF00"></path>
                <path d="M18.4810811,40 L19,34.4237288 C17.2702703,34.2259887 15.627027,33.7514124 14.027027,33 L11,37.8644068 C13.3783784,39.0112994 15.9297297,39.7231638 18.4810811,40" id="Fill-3" fill="#F2AF00"></path>
                <path d="M31.6070529,30 C29.8740554,32.0064034 27.6574307,33.4578442 25.1586902,34.2689434 C23.7884131,34.6958378 22.3778338,34.9519744 20.9672544,34.9519744 L20.4836272,34.9519744 L20,40.9711846 C22.256927,41.0992529 24.5541562,40.8004269 26.8110831,40.0747065 C30.3979849,38.9220918 33.5415617,36.7876201 36,33.8847385 L31.6070529,30 Z" id="Fill-5" fill="#F2AF00"></path>
                <path d="M30,22.8648649 L33.4285714,24 C33.7362637,23.027027 33.956044,22.0135135 34,21 L30.3516484,21 C30.2637363,21.6486486 30.1758242,22.2567568 30,22.8648649" id="Fill-7" fill="#F2AF00"></path>
                <path d="M31.5247525,26.3225806 C31.7227723,25.9784946 31.8811881,25.5913978 32,25.2043011 L28.9108911,24 C28.8316832,24.2150538 28.7128713,24.4301075 28.6336634,24.6451613 C28.4356436,25.0322581 28.2376238,25.3763441 28,25.7204301 L30.5346535,28 C30.9306931,27.483871 31.2475248,26.9247312 31.5247525,26.3225806" id="Fill-9" fill="#F2AF00"></path>
                <path d="M27.3029046,27 C26.1825726,28.0900202 24.7302905,28.9075353 23.153527,29.3746869 C22.2406639,29.6471919 21.2863071,29.7639798 20.3319502,29.7639798 L20.2904564,29.7639798 L20,32.9951111 C21.4107884,33.0340404 22.8215768,32.8393939 24.1908714,32.450101 C26.4315353,31.788303 28.4232365,30.6204242 30,29.0632525 L27.3029046,27 Z" id="Fill-11" fill="#F2AF00"></path>
                <path d="M40.0828025,27 C40.6178344,25.0729927 40.9235669,23.0583942 41,21 L35.5732484,21.0437956 C35.5350318,22.3576642 35.343949,23.6277372 35,24.8978102 L40.0828025,27 Z" id="Fill-13" fill="#7AB800"></path>
                <path d="M34.4583333,15.6573034 C34.7916667,16.758427 35,17.8595506 35.0833333,19 L41,18.9606742 C40.9166667,17.3089888 40.625,15.6573034 40.125,14.0449438 C39.9166667,13.3370787 39.625,12.6685393 39.3333333,12 L34,14.3988764 C34.1666667,14.7921348 34.3333333,15.1853933 34.4583333,15.6573034" id="Fill-15" fill="#7AB800"></path>
                <g id="Group-19" transform="translate(23.000000, 0.000000)">
                    <mask id="mask-2" fill="white">
                        <use xlink:href="#path-1"></use>
                    </mask>
                    <g id="Clip-18"></g>
                    <path d="M0.338442105,5.98177576 C1.64370526,6.27874545 2.90686316,6.74541212 4.12791579,7.4242 C6.82265263,8.86662424 8.92791579,11.0302606 10.3173895,13.6605636 L15.7068632,11.0726848 C13.7700211,7.25450303 10.7384421,4.15753333 6.90686316,2.07874545 C5.13844211,1.10298788 3.24370526,0.4242 1.30686316,-4.24242424e-05 L0.338442105,5.98177576 Z" id="Fill-17" fill="#7AB800" mask="url(#mask-2)"></path>
                </g>
                <path d="M21.44,10 L22,7.07142857 C21.52,7.03571429 21.04,7 20.56,7 C20.04,7 19.52,7.03571429 19,7.07142857 L19.6,10 C20.2,9.96428571 20.84,9.96428571 21.44,10" id="Fill-20" fill="#7AB800"></path>
                <path d="M16,11 C16.5116279,10.7959184 17.0232558,10.5918367 17.5813953,10.4693878 C17.7209302,10.4285714 17.8604651,10.3877551 18,10.3469388 L17.3023256,7 C17.0232558,7.08163265 16.6976744,7.12244898 16.4186047,7.20408163 C15.5813953,7.40816327 14.7906977,7.69387755 14,8.06122449 L16,11 Z" id="Fill-22" fill="#7AB800"></path>
                <path d="M23,10.3333333 C23.7330317,10.5416667 24.4660633,10.8333333 25.158371,11.2083333 C26.7873303,12.0833333 28.0904977,13.4166667 28.9457014,15 L32,13.5416667 C30.8190045,11.2916667 28.9864253,9.41666667 26.7466063,8.20833333 C25.7285068,7.66666667 24.6696833,7.25 23.5701357,7 L23,10.3333333 Z" id="Fill-24" fill="#7AB800"></path>
                <g id="Group-28" transform="translate(0.000000, 9.000000)">
                    <mask id="mask-4" fill="white">
                        <use xlink:href="#path-3"></use>
                    </mask>
                    <g id="Clip-27"></g>
                    <path d="M7.36156,4.26976744 C7.52156,3.97674419 7.68156,3.68372093 7.84156,3.39069767 L3.20156,-5.94872988e-15 C2.92156,0.460465116 2.64156,0.962790698 2.36156,1.46511628 C-0.31844,6.69767442 -0.63844,12.6 1.00156,17.8325581 L6.32156,15.7813953 C5.20156,12.0976744 5.48156,7.95348837 7.36156,4.26976744" id="Fill-26" fill="#4694CE" mask="url(#mask-4)"></path>
                </g>
                <path d="M13.7692308,7 C14.5,6.58823529 15.2692308,6.25882353 16.0769231,6.01176471 C16.3846154,5.92941176 16.6923077,5.84705882 17,5.76470588 L16.0384615,0 C15.5384615,0.123529412 15,0.247058824 14.5,0.411764706 C13.2692308,0.823529412 12.1153846,1.31764706 11,1.93529412 L13.7692308,7 Z" id="Fill-29" fill="#4694CE"></path>
                <path d="M8.56585366,11 C9.54146341,9.74509804 10.7121951,8.64705882 12,7.78431373 L9.22926829,3 C7.2,4.25490196 5.44390244,5.90196078 4,7.82352941 L8.56585366,11 Z" id="Fill-31" fill="#4694CE"></path>
                <path d="M11.7835498,15.3875969 C11.8701299,15.2596899 11.9134199,15.1317829 12,15.003876 L9.05627706,13 C8.92640693,13.255814 8.75324675,13.4689922 8.62337662,13.7248062 C6.89177489,16.9224806 6.54545455,20.5465116 7.58441558,24 L10.961039,22.7635659 C10.2683983,20.3333333 10.5281385,17.6899225 11.7835498,15.3875969" id="Fill-33" fill="#4694CE"></path>
                <path d="M13.5454545,27 L11,29.1176471 C11.6868687,29.8235294 12.4545455,30.4509804 13.3434343,31 L15,28.1764706 C14.4343434,27.8235294 13.9494949,27.4313725 13.5454545,27" id="Fill-35" fill="#4694CE"></path>
                <path d="M10.5049505,28 L13,25.7021277 C12.6435644,25.1914894 12.3267327,24.5957447 12.0891089,24 L9,25.2340426 C9.43564356,26.212766 9.91089109,27.1489362 10.5049505,28" id="Fill-37" fill="#4694CE"></path>
                <path d="M53.3370787,12.190303 C53.6666667,10.5830303 53.9138577,9.18181818 54.0374532,7.94545455 C54.1610487,6.75030303 54.2434457,5.72 54.2434457,4.89575758 C54.2434457,4.56606061 54.2434457,4.27757576 54.2022472,4.03030303 C54.2022472,3.7830303 54.1610487,3.53575758 54.1198502,3.28848485 C54.6554307,3.20606061 55.2322097,3.12363636 55.8913858,3.08242424 C56.5505618,3.04121212 57.1273408,3 57.6217228,3 C58.4868914,3 59.4756554,3.08242424 60.5468165,3.28848485 C60.7116105,3.74181818 60.7940075,4.31878788 60.7940075,5.01939394 C60.7940075,5.67878788 60.752809,6.37939394 60.6292135,7.20363636 C60.505618,8.02787879 60.340824,8.93454545 60.17603,9.88242424 L56.6741573,28.2630303 C56.5917603,28.7987879 56.5505618,29.2109091 56.5505618,29.5406061 C56.5505618,30.0351515 56.6329588,30.4060606 56.7565543,30.6945455 C56.8801498,30.9830303 57.0861423,31.1890909 57.2921348,31.3539394 C57.4981273,31.5187879 57.7453184,31.6012121 58.0337079,31.6424242 C58.3220974,31.6836364 58.5692884,31.7248485 58.8576779,31.7248485 C58.9812734,31.7248485 59.1872659,31.6836364 59.5580524,31.6424242 C59.8876404,31.6012121 60.2172285,31.5187879 60.4644195,31.4363636 C60.6292135,31.9721212 60.752809,32.5078788 60.835206,33.1260606 C60.9588015,33.7442424 61,34.3624242 61,34.9806061 C61,35.2278788 61,35.4339394 60.9588015,35.6812121 C60.9588015,35.8872727 60.917603,36.1345455 60.8764045,36.3818182 C60.423221,36.5466667 59.8052434,36.7115152 59.1048689,36.8351515 C58.3632959,36.9587879 57.5805243,37 56.6741573,37 C54.6142322,37 52.9662921,36.5054545 51.7715356,35.4751515 C50.576779,34.4448485 50,32.8375758 50,30.6533333 C50,30.2412121 50.0411985,29.7878788 50.082397,29.2933333 C50.1235955,28.84 50.2059925,28.3454545 50.329588,27.809697 L53.3370787,12.190303 Z" id="Fill-39" fill="#0076CE"></path>
                <path d="M69.5252525,9.375 C69.4848485,8.3125 69.5656566,7.33173077 69.7272727,6.35096154 C69.8888889,5.41105769 70.1717172,4.38942308 70.4949495,3.32692308 C71.020202,3.20432692 71.5858586,3.12259615 72.1919192,3.08173077 C72.7979798,3.04086538 73.3232323,3 73.8080808,3 C74.2929293,3 74.8181818,3.04086538 75.3838384,3.08173077 C75.9494949,3.12259615 76.5151515,3.20432692 77,3.32692308 C77,4.38942308 76.9191919,5.41105769 76.7171717,6.35096154 C76.5555556,7.33173077 76.2727273,8.3125 75.9090909,9.33413462 C75.3838384,9.41586538 74.8181818,9.49759615 74.2121212,9.49759615 C73.6464646,9.53846154 73.0808081,9.53846154 72.6363636,9.53846154 C72.1919192,9.53846154 71.6666667,9.53846154 71.0606061,9.49759615 C70.5353535,9.53846154 70.010101,9.45673077 69.5252525,9.375 L69.5252525,9.375 Z M68.2323232,18.2019231 L65.4040404,18.2019231 C65.4040404,18.1201923 65.4040404,18.0384615 65.3636364,17.9158654 C65.3636364,17.8341346 65.3232323,17.7115385 65.3232323,17.5889423 C65.3232323,16.8125 65.4040404,16.0769231 65.5656566,15.3822115 C65.7272727,14.6875 65.9292929,13.9927885 66.2525253,13.2572115 L75.3030303,13.2572115 L71.2222222,36.7139423 C70.0909091,36.8774038 69,37 67.989899,37 C67.0606061,37 66.0505051,36.9182692 65,36.7139423 L68.2323232,18.2019231 Z" id="Fill-41" fill="#0076CE"></path>
                <path d="M78,13.3276451 C79.125,13.1638225 80.2916667,13.0409556 81.4166667,13.0409556 C82.6666667,13.0409556 83.8333333,13.1228669 85.0416667,13.3276451 L86.8333333,30.5290102 L92.0416667,19.4300341 C92.7083333,17.996587 93.125,16.8498294 93.3333333,15.9897611 C93.5,15.1296928 93.5833333,14.3924915 93.5833333,13.778157 L93.5833333,13.2866894 C94.125,13.2047782 94.6666667,13.1228669 95.3333333,13.0819113 C95.9583333,13.0409556 96.625,13 97.2916667,13 C98.6666667,13 99.9166667,13.0819113 101,13.2866894 L101,13.5324232 C101,14.2696246 100.833333,15.1296928 100.458333,16.112628 C100.083333,17.0955631 99.4583333,18.4061433 98.5833333,20.003413 L89.25,36.7952218 C88.625,36.8771331 88,36.9590444 87.375,36.9590444 C86.7083333,37 86.2083333,37 85.75,37 C85.3333333,37 84.75,37 84,36.9590444 C83.2916667,36.9590444 82.6666667,36.8771331 82.125,36.7542662 L78,13.3276451 Z" id="Fill-43" fill="#0076CE"></path>
                <path d="M110.125,23.625 C111.291667,23.4583333 112.25,23.2083333 113,22.9166667 C113.75,22.625 114.333333,22.2916667 114.75,21.9583333 C115.166667,21.625 115.458333,21.25 115.625,20.875 C115.791667,20.5 115.875,20.125 115.875,19.75 C115.875,19.1666667 115.666667,18.6666667 115.291667,18.3333333 C114.916667,18 114.375,17.7916667 113.75,17.7916667 C112.958333,17.7916667 112.208333,17.9583333 111.541667,18.3333333 C110.875,18.7083333 110.291667,19.1666667 109.791667,19.75 C109.291667,20.3333333 108.875,21 108.5,21.75 C108.125,22.5 107.875,23.25 107.708333,24.0416667 L110.125,23.625 Z M107.5,28.375 C107.666667,29.8333333 108.166667,30.9583333 108.958333,31.6666667 C109.75,32.375 110.916667,32.75 112.458333,32.75 C113.708333,32.75 114.791667,32.625 115.708333,32.375 C116.666667,32.125 117.625,31.75 118.708333,31.3333333 C119.208333,31.9583333 119.541667,32.7083333 119.708333,33.5833333 C119.875,34.4583333 119.958333,35.375 119.958333,36.375 C119.416667,36.625 118.833333,36.8333333 118.125,37.0416667 C117.416667,37.25 116.708333,37.4166667 115.958333,37.5416667 C115.208333,37.6666667 114.458333,37.7916667 113.75,37.875 C113,37.9583333 112.333333,38 111.75,38 C109.875,38 108.25,37.75 106.916667,37.2916667 C105.583333,36.8333333 104.458333,36.1666667 103.583333,35.3333333 C102.708333,34.5 102.041667,33.4583333 101.625,32.25 C101.208333,31.0416667 101,29.6666667 101,28.2083333 C101,26.3333333 101.333333,24.5 101.958333,22.6666667 C102.625,20.8333333 103.541667,19.2083333 104.708333,17.7916667 C105.875,16.375 107.333333,15.2083333 109.041667,14.3333333 C110.75,13.4583333 112.666667,13 114.791667,13 C115.791667,13 116.75,13.125 117.625,13.375 C118.5,13.625 119.25,14 119.916667,14.5 C120.583333,15 121.083333,15.625 121.458333,16.375 C121.833333,17.125 122,17.9583333 122,18.9583333 C122,20.3333333 121.666667,21.5416667 121.041667,22.5833333 C120.375,23.5833333 119.541667,24.4583333 118.458333,25.1666667 C117.375,25.875 116.166667,26.4583333 114.791667,26.9166667 C113.416667,27.375 112,27.7083333 110.5,27.9166667 L107.5,28.375 Z" id="Fill-45" fill="#0076CE"></path>
                <path d="M143.584331,33.0083195 C144.716704,33.0083195 145.68731,32.6339434 146.456111,31.8851913 C147.224103,31.1364393 147.871579,30.2212978 148.356882,29.1397671 C148.84178,28.0582363 149.205757,26.8935108 149.407967,25.687188 C149.610177,24.4808652 149.731502,23.3577371 149.731502,22.4009983 C149.731502,19.5723794 148.599129,18.1580699 146.374823,18.1580699 C145.242854,18.1580699 144.31269,18.5324459 143.543889,19.3227953 C142.775492,20.0715474 142.168863,21.0282862 141.724002,22.1514143 C141.238699,23.2745424 140.915164,24.4392679 140.712954,25.6455907 C140.510745,26.8935108 140.429861,27.9750416 140.429861,28.9317804 C140.389823,31.6772047 141.440909,33.0083195 143.584331,33.0083195 M142.977702,38 C139.904116,38 137.639368,37.1680532 136.183459,35.5041597 C134.727955,33.8402662 134,31.5524126 134,28.6821963 C134,26.8519135 134.282689,24.9800333 134.808838,23.1081531 C135.334583,21.2362729 136.143422,19.5723794 137.235354,18.0748752 C138.326881,16.577371 139.661869,15.3710483 141.279546,14.4143095 C142.897222,13.4575707 144.797588,13 146.981452,13 C150.095884,13 152.360227,13.8319468 153.816541,15.5374376 C155.272045,17.2429285 156,19.530782 156,22.4009983 C156,24.3144759 155.757753,26.1863561 155.232008,28.0166389 C154.705859,29.8469218 153.89702,31.5108153 152.84553,33.0083195 C151.753598,34.5058236 150.419015,35.6705491 148.761301,36.5856905 C147.143624,37.5424293 145.202007,38 142.977702,38" id="Fill-47" fill="#0076CE"></path>
                <g id="Group-51" transform="translate(156.000000, 13.000000)">
                    <mask id="mask-6" fill="white">
                        <use xlink:href="#path-5"></use>
                    </mask>
                    <g id="Clip-50"></g>
                    <path d="M9.30470938,19.0872907 C9.54886563,19.168686 9.83283438,19.2500814 10.2390844,19.2500814 C10.6047094,19.2907791 11.0109594,19.2907791 11.3765844,19.2907791 C12.7172094,19.2907791 13.8140844,18.9651977 14.7890844,18.3547326 C15.7234594,17.7442674 16.5359594,16.9710116 17.1453344,15.9942674 C17.7547094,15.0582209 18.2015844,14.0000814 18.4859594,12.8605465 C18.7703344,11.7210116 18.9328344,10.6221744 18.9328344,9.52333721 C18.9328344,8.46519767 18.7297094,7.56984884 18.2828344,6.79659302 C17.8359594,6.02333721 17.1047094,5.65705814 16.0484594,5.65705814 C14.6672094,5.65705814 13.4890844,6.22682558 12.4734594,7.40705814 C11.4984594,8.5872907 10.7672094,10.5407791 10.3203344,13.2268256 L9.30470938,19.0872907 Z M4.38908437,10.7849651 C4.71408438,8.87217442 4.95783438,7.20356977 5.12033438,5.73845349 C5.28283438,4.27333721 5.36408438,3.13380233 5.36408438,2.31984884 L5.36408438,1.46519767 C5.36408438,1.22101163 5.36408438,0.976825581 5.32345938,0.732639535 C6.29845938,0.569848837 7.31408438,0.447755814 8.28908438,0.447755814 C9.14220938,0.447755814 10.0765844,0.529151163 11.1328344,0.732639535 C11.1734594,0.976825581 11.2547094,1.2617093 11.2953344,1.5872907 C11.3359594,1.91287209 11.3765844,2.40124419 11.3765844,3.09310465 C11.3765844,3.37798837 11.3765844,3.62217442 11.3359594,3.86636047 C11.3359594,4.11054651 11.2953344,4.39543023 11.2140844,4.7617093 C11.9047094,3.45938372 12.9609594,2.40124419 14.3828344,1.50589535 C15.8047094,0.651244186 17.3890844,0.203569767 19.2172094,0.203569767 C21.3297094,0.203569767 22.9547094,0.936127907 24.0515844,2.36054651 C25.1484594,3.78496512 25.7578344,5.90124419 25.7578344,8.62798837 C25.7578344,10.5000814 25.4734594,12.3721744 24.9047094,14.2849651 C24.3359594,16.1977558 23.4422094,17.9070581 22.1828344,19.4128721 C20.9234594,20.9593837 19.3390844,22.180314 17.3484594,23.1570581 C15.3578344,24.1338023 12.9609594,24.5814767 10.0765844,24.5814767 C9.54845938,24.5814767 9.18283438,24.5814767 8.93908438,24.5407791 C8.69533438,24.5000814 8.49220938,24.5000814 8.32970938,24.4593837 L6.54220938,34.7151977 C5.93283438,34.8372907 5.36408438,34.918686 4.83595938,34.9593837 C4.30783438,35.0000814 3.77970937,35.0000814 3.29220938,35.0000814 C2.76408437,35.0000814 2.27658438,35.0000814 1.74845937,34.9593837 C1.22074063,34.918686 0.692209375,34.8372907 0.123459375,34.7151977 L4.38908437,10.7849651 Z" id="Fill-49" fill="#0076CE" mask="url(#mask-6)"></path>
                </g>
                <path d="M188.4,18.4266487 L185,18.4266487 C185,17.6191117 185.04,16.8115747 185.1596,16.0444145 C185.28,15.2772544 185.48,14.4293405 185.84,13.5814266 L189.24,13.5814266 L189.52,12.2489906 C189.68,11.5222073 189.7596,10.795424 189.8,10.1090175 C189.84,9.42261104 189.84,8.85733513 189.84,8.41318977 C190.6,7.88829071 191.5596,7.56527591 192.72,7.3230148 C193.88,7.12113055 194.92,7 195.92,7 C196.08,7.44414536 196.1596,8.00942127 196.1596,8.69582773 C196.1596,9.18034993 196.12,9.70524899 196.04,10.230148 C195.9596,10.795424 195.88,11.4010767 195.7596,12.0471063 L195.48,13.5410498 L201,13.5410498 C201,14.4293405 200.92,15.2772544 200.7596,16.0040377 C200.6,16.730821 200.4,17.538358 200.12,18.3862719 L194.6,18.3862719 L193.04,27.2288022 C193,27.6325707 192.92,28.0363392 192.88,28.3997308 C192.84,28.7631225 192.8,29.0861373 192.8,29.4495289 C192.8,30.2166891 192.9596,30.8223419 193.32,31.2664872 C193.6796,31.7106326 194.3596,31.9528937 195.32,31.9528937 C195.84,31.9528937 196.28,31.9125168 196.64,31.8317631 C197.04,31.7510094 197.3596,31.6702557 197.72,31.589502 C198.12,32.4374159 198.28,33.6083445 198.28,34.9811575 L198.28,35.7079408 C198.28,35.9502019 198.28,36.192463 198.24,36.4347241 C196.9596,36.8384926 195.44,37 193.68,37 C191.2,37 189.3596,36.5558546 188.1596,35.6271871 C186.9596,34.6985195 186.3596,33.1641992 186.3596,30.9838493 C186.3596,30.5397039 186.4,30.0551817 186.44,29.6110363 C186.48,29.1265141 186.5596,28.6016151 186.68,28.0363392 L188.4,18.4266487 Z" id="Fill-52" fill="#0076CE"></path>
                <path d="M209.535117,9.375 C209.494582,8.3125 209.575251,7.33173077 209.735786,6.35096154 C209.89592,5.41105769 210.177258,4.38942308 210.497926,3.32692308 C211.020067,3.20432692 211.58194,3.12259615 212.183946,3.08173077 C212.785953,3.04086538 213.307291,3 213.789298,3 C214.270903,3 214.792642,3.04086538 215.354515,3.08173077 C215.915987,3.12259615 216.478261,3.20432692 217,3.32692308 C217,4.38942308 216.919331,5.41105769 216.718662,6.35096154 C216.558528,7.33173077 216.277592,8.3125 215.915987,9.33413462 C215.394649,9.41586538 214.832776,9.49759615 214.230769,9.49759615 C213.668896,9.53846154 213.106622,9.53846154 212.665552,9.53846154 C212.22408,9.53846154 211.70194,9.53846154 211.099933,9.49759615 C210.538462,9.53846154 209.976589,9.45673077 209.535117,9.375 L209.535117,9.375 Z M208.210301,18.2019231 L205.400936,18.2019231 C205.400936,18.1201923 205.400936,18.0384615 205.361204,17.9158654 C205.32107,17.7932692 205.32107,17.7115385 205.32107,17.5889423 C205.32107,16.8125 205.401338,16.0769231 205.561873,15.3822115 C205.722408,14.6875 205.923077,13.9927885 206.244147,13.2572115 L215.234114,13.2572115 L211.180602,36.7139423 C210.056856,36.8774038 208.973244,37 207.9699,37 C207.046823,37 206.043478,36.9182692 205,36.7139423 L208.210301,18.2019231 Z" id="Fill-54" fill="#0076CE"></path>
                <path d="M233.191983,31.75 C233.512658,32.2916667 233.793249,32.9583333 233.993671,33.75 C234.194093,34.5 234.314346,35.5416667 234.314346,36.7916667 C233.352321,37.2083333 232.350211,37.5416667 231.308017,37.7083333 C230.225738,37.875 229.063291,38 227.780591,38 C224.413502,38 221.92827,37.125 220.364979,35.4166667 C218.801688,33.7083333 218,31.375 218,28.375 C218,26.5416667 218.280591,24.75 218.881857,22.9166667 C219.443038,21.0833333 220.324895,19.4166667 221.447257,17.9583333 C222.56962,16.5 223.972574,15.2916667 225.616435,14.375 C227.259494,13.4583333 229.183544,13 231.348101,13 C232.350211,13 233.352321,13.0833333 234.274262,13.25 C235.236688,13.4166667 236.118143,13.6666667 237,14 C236.959916,14.7916667 236.839662,15.6666667 236.599156,16.5833333 C236.35865,17.5 235.99789,18.375 235.476793,19.2083333 C234.835844,18.9166667 234.194093,18.7083333 233.552743,18.5416667 C232.911392,18.375 232.230359,18.2916667 231.428671,18.2916667 C230.265823,18.2916667 229.263713,18.5416667 228.422342,19.0833333 C227.580169,19.625 226.85865,20.3333333 226.257384,21.2083333 C225.696203,22.0833333 225.255274,23.0833333 224.974684,24.25 C224.694093,25.375 224.533755,26.5833333 224.533755,27.7916667 C224.533755,29.5 224.934599,30.75 225.776371,31.5416667 C226.618143,32.3333333 227.660338,32.75 228.943038,32.75 C229.584388,32.75 230.226139,32.7083333 230.867089,32.5833333 C231.42827,32.375 232.229958,32.125 233.191983,31.75" id="Fill-56" fill="#0076CE"></path>
                <path d="M244.654321,26.875 C244.160905,26.7083333 243.667078,26.4583333 243.17284,26.1666667 C242.679012,25.875 242.226749,25.5 241.815226,25.0416667 C241.403704,24.5833333 241.074486,24.0416667 240.82716,23.4166667 C240.580658,22.75 240.457202,22 240.457202,21.125 C240.457202,19.8333333 240.703704,18.6666667 241.197942,17.6666667 C241.69177,16.6666667 242.390947,15.8333333 243.296296,15.125 C244.201646,14.4166667 245.230453,13.9166667 246.465021,13.5416667 C247.658848,13.1666667 248.975309,13 250.374486,13 C250.868724,13 251.403292,13.0416667 251.979835,13.0833333 C252.555556,13.125 253.132099,13.2083333 253.749383,13.2916667 C254.325103,13.375 254.901235,13.5 255.477778,13.6666667 C256.053498,13.8333333 256.547325,14.0416667 257,14.2916667 C256.958848,15.0833333 256.794239,15.875 256.547325,16.6666667 C256.300823,17.4583333 255.930041,18.25 255.436214,19.0416667 C254.778189,18.7083333 254.037449,18.4166667 253.090535,18.2083333 C252.185597,18 251.320988,17.875 250.497942,17.875 C250.168724,17.875 249.798354,17.9166667 249.386831,17.9583333 C248.975309,18 248.60535,18.125 248.234568,18.2916667 C247.864609,18.4583333 247.576543,18.6666667 247.329218,19 C247.082305,19.2916667 246.959259,19.7083333 246.959259,20.1666667 C246.959259,21.0833333 247.534979,21.8333333 248.687654,22.3333333 L250.457202,23.125 C251.032922,23.375 251.609053,23.6666667 252.144033,24 C252.679012,24.3333333 253.17284,24.7083333 253.584362,25.1666667 C253.995885,25.625 254.366667,26.1666667 254.613169,26.7916667 C254.860494,27.4166667 254.983951,28.125 254.983951,28.9583333 C254.983951,30.5 254.695473,31.8333333 254.078189,32.9583333 C253.460905,34.0833333 252.63786,35.0416667 251.609053,35.7916667 C250.580247,36.5416667 249.345679,37.125 247.946502,37.4583333 C246.547737,37.8333333 245.024691,38 243.461317,38 C242.473251,38 241.403704,37.9166667 240.209877,37.7083333 C239.016872,37.5 237.946502,37.2083333 237,36.7916667 C237.082716,35 237.534979,33.3333333 238.358025,31.7916667 C239.304527,32.2083333 240.25144,32.5416667 241.238683,32.7083333 C242.226749,32.875 243.17284,32.9583333 244.078601,32.9583333 C244.530864,32.9583333 245.024691,32.9166667 245.559671,32.8333333 C246.09465,32.75 246.547737,32.5833333 246.959259,32.375 C247.370782,32.1666667 247.740741,31.875 248.028807,31.4583333 C248.316872,31.0833333 248.481893,30.5833333 248.481893,30.0416667 C248.481893,29.4166667 248.276132,28.9166667 247.823045,28.5416667 C247.411523,28.1666667 246.794239,27.7916667 246.053498,27.5 L244.654321,26.875 Z" id="Fill-58" fill="#0076CE"></path>
            </g>
        </g>
    </g>
</svg>